<?xml version="1.0" encoding="utf-8"?>
<!-- Generator: Adobe Illustrator 15.0.0, SVG Export Plug-In . SVG Version: 6.00 Build 0)  -->
<!DOCTYPE svg PUBLIC "-//W3C//DTD SVG 1.1//EN" "http://www.w3.org/Graphics/SVG/1.1/DTD/svg11.dtd">
<svg version="1.1" id="Calque_1" xmlns="http://www.w3.org/2000/svg" xmlns:xlink="http://www.w3.org/1999/xlink" x="0px" y="0px"
	 width="60px" height="60px" viewBox="77.5 -85.5 60 60" enable-background="new 77.5 -85.5 60 60" xml:space="preserve">
<g>
	<g>
		<g>
			<g>
				<path fill="#FFFFFF" d="M107.5-25.816c16.396,0,29.686-13.291,29.686-29.684c0-16.395-13.289-29.685-29.686-29.685
					S77.816-71.895,77.816-55.5C77.816-39.107,91.104-25.816,107.5-25.816"/>
			</g>
		</g>
	</g>
	<g>
		<path fill="#B969A8" d="M92.771-45.707l5.066-9.38l-4.76-8.876h4.592l1.598,3.444c0.205,0.43,0.41,0.882,0.615,1.358
			s0.438,1.004,0.699,1.582h0.113c0.205-0.578,0.406-1.106,0.602-1.582s0.389-0.928,0.574-1.358l1.455-3.444h4.396l-4.73,9.072
			l5.039,9.185h-4.592l-1.82-3.726c-0.223-0.483-0.443-0.965-0.658-1.44c-0.215-0.478-0.451-0.994-0.713-1.556h-0.111
			c-0.205,0.562-0.41,1.078-0.615,1.556c-0.207,0.476-0.412,0.957-0.617,1.44l-1.707,3.726L92.771-45.707L92.771-45.707z"/>
		<path fill="#B969A8" d="M113.268-45.371c-0.857,0-1.639-0.168-2.338-0.504s-1.299-0.816-1.791-1.442
			c-0.494-0.626-0.877-1.386-1.148-2.282c-0.27-0.896-0.406-1.912-0.406-3.052c0-1.139,0.164-2.155,0.49-3.052
			c0.326-0.896,0.756-1.656,1.289-2.282c0.531-0.625,1.146-1.106,1.848-1.442c0.699-0.336,1.414-0.504,2.143-0.504
			c0.783,0,1.428,0.131,1.932,0.392c0.504,0.262,0.998,0.616,1.484,1.064l-0.17-2.128v-4.732h4.115v19.628h-3.359l-0.279-1.373
			h-0.111c-0.484,0.486-1.055,0.893-1.709,1.219C114.604-45.535,113.939-45.371,113.268-45.371z M114.332-48.73
			c0.447,0,0.854-0.094,1.217-0.281c0.365-0.186,0.715-0.514,1.051-0.979v-5.683c-0.373-0.336-0.756-0.569-1.146-0.7
			c-0.393-0.13-0.775-0.196-1.148-0.196c-0.652,0-1.23,0.312-1.734,0.938c-0.506,0.625-0.758,1.6-0.758,2.926
			c0,1.381,0.221,2.389,0.658,3.022C112.908-49.048,113.529-48.73,114.332-48.73z"/>
	</g>
	<g>
		<path fill="#B969A8" d="M107.5-29.191c-14.508,0-26.309-11.803-26.309-26.309c0-14.507,11.801-26.309,26.309-26.309
			c1.121,0,2.029,0.909,2.029,2.03c0,1.121-0.908,2.03-2.029,2.03c-12.27,0-22.25,9.981-22.25,22.25
			c0,12.269,9.98,22.248,22.25,22.248s22.25-9.979,22.25-22.248c0-5.943-2.314-11.53-6.518-15.732c-0.793-0.793-0.793-2.078,0-2.871
			c0.793-0.792,2.078-0.792,2.871,0c4.969,4.969,7.705,11.576,7.705,18.604C133.811-40.994,122.006-29.191,107.5-29.191z"/>
	</g>
</g>
</svg>
