<?xml version="1.0" encoding="utf-8"?>
<!-- Generator: Adobe Illustrator 15.0.0, SVG Export Plug-In . SVG Version: 6.00 Build 0)  -->
<!DOCTYPE svg PUBLIC "-//W3C//DTD SVG 1.1//EN" "http://www.w3.org/Graphics/SVG/1.1/DTD/svg11.dtd">
<svg version="1.1" id="Calque_1" xmlns="http://www.w3.org/2000/svg" xmlns:xlink="http://www.w3.org/1999/xlink" x="0px" y="0px"
	 width="60px" height="60px" viewBox="0 0 60 60" enable-background="new 0 0 60 60" xml:space="preserve">
<g>
	<g>
		<g>
			<g>
				<path fill="#FFFFFF" d="M30.5,60.012"/>
				<path fill="#FFFFFF" d="M30.5,60.012"/>
			</g>
		</g>
	</g>
</g>
<g>
	<g>
		<g>
			<path fill="#FFFFFF" d="M29.999,59.684c16.396,0,29.686-13.291,29.686-29.684c0-16.395-13.289-29.685-29.686-29.685
				C13.604,0.315,0.315,13.605,0.315,30C0.315,46.393,13.604,59.684,29.999,59.684"/>
		</g>
	</g>
</g>
<g>
	<path fill="#77529E" d="M23.069,39.128V20.872h6.244c0.952,0,1.835,0.069,2.646,0.21c0.812,0.14,1.521,0.388,2.129,0.741
		c0.605,0.355,1.083,0.822,1.429,1.4c0.345,0.579,0.519,1.307,0.519,2.184c0,0.411-0.057,0.822-0.168,1.232
		c-0.112,0.41-0.271,0.793-0.477,1.148c-0.206,0.354-0.453,0.672-0.742,0.951c-0.289,0.28-0.621,0.486-0.994,0.616v0.112
		c0.467,0.112,0.896,0.285,1.289,0.518c0.392,0.234,0.736,0.527,1.035,0.883c0.299,0.354,0.532,0.771,0.7,1.246
		c0.168,0.475,0.252,1.021,0.252,1.638c0,0.935-0.183,1.735-0.546,2.407c-0.363,0.673-0.868,1.229-1.514,1.666
		c-0.643,0.439-1.396,0.767-2.254,0.98c-0.857,0.215-1.782,0.322-2.771,0.322H23.069z M27.186,28.179h1.932
		c1.008,0,1.74-0.196,2.199-0.588c0.457-0.393,0.686-0.914,0.686-1.568c0-0.709-0.232-1.213-0.699-1.512
		c-0.467-0.298-1.188-0.448-2.156-0.448h-1.96L27.186,28.179L27.186,28.179z M27.186,35.937h2.324c2.258,0,3.389-0.822,3.389-2.465
		c0-0.803-0.281-1.377-0.842-1.723s-1.409-0.518-2.547-0.518h-2.324V35.937z"/>
</g>
<g>
	<path fill="#77529E" d="M30,56.309C15.494,56.309,3.691,44.506,3.691,30C3.691,15.493,15.494,3.691,30,3.691
		c1.121,0,2.029,0.909,2.029,2.03c0,1.121-0.908,2.03-2.029,2.03c-12.268,0-22.249,9.981-22.249,22.25
		c0,12.269,9.981,22.248,22.249,22.248c12.27,0,22.25-9.979,22.25-22.248c0-1.121,0.908-2.03,2.029-2.03s2.029,0.909,2.029,2.03
		C56.311,44.506,44.508,56.309,30,56.309z"/>
</g>
</svg>
