<?xml version="1.0" encoding="utf-8"?>
<!-- Generator: Adobe Illustrator 15.0.0, SVG Export Plug-In . SVG Version: 6.00 Build 0)  -->
<!DOCTYPE svg PUBLIC "-//W3C//DTD SVG 1.1//EN" "http://www.w3.org/Graphics/SVG/1.1/DTD/svg11.dtd">
<svg version="1.1" id="Calque_1" xmlns="http://www.w3.org/2000/svg" xmlns:xlink="http://www.w3.org/1999/xlink" x="0px" y="0px"
	 width="60px" height="60px" viewBox="0 0 60 60" enable-background="new 0 0 60 60" xml:space="preserve">
<g>
	<g>
		<g>
			<g>
				<path fill="#FFFFFF" d="M30,30"/>
				<path fill="#FFFFFF" d="M30,30"/>
			</g>
		</g>
	</g>
</g>
<g>
	<g>
		<g>
			<path fill="#FFFFFF" d="M29.999,59.684c16.396,0,29.686-13.289,29.686-29.684c0-16.395-13.289-29.683-29.686-29.683
				C13.604,0.316,0.315,13.605,0.315,30C0.315,46.395,13.604,59.684,29.999,59.684"/>
		</g>
	</g>
</g>
<g>
	<path fill="#4ABDA8" d="M30.001,56.311C15.492,56.311,3.69,44.508,3.69,30C3.69,15.493,15.492,3.69,30.001,3.69
		c1.121,0,2.028,0.909,2.028,2.03s-0.907,2.03-2.028,2.03c-12.271,0-22.25,9.98-22.25,22.249c0,12.269,9.98,22.25,22.25,22.25
		c12.268,0,22.249-9.98,22.249-22.25c0-1.12,0.908-2.029,2.029-2.029s2.029,0.909,2.029,2.029
		C56.309,44.508,44.506,56.311,30.001,56.311z"/>
</g>
<g>
	<polygon fill="#4ABDA8" points="19.43,35.766 21.352,22.312 29.039,14.625 38.647,24.234 32.882,30 40.569,37.688 29.039,45.375 	
		"/>
</g>
</svg>
