<?xml version="1.0" encoding="utf-8"?>
<!-- Generator: Adobe Illustrator 15.0.0, SVG Export Plug-In . SVG Version: 6.00 Build 0)  -->
<!DOCTYPE svg PUBLIC "-//W3C//DTD SVG 1.1//EN" "http://www.w3.org/Graphics/SVG/1.1/DTD/svg11.dtd">
<svg version="1.1" id="Calque_1" xmlns="http://www.w3.org/2000/svg" xmlns:xlink="http://www.w3.org/1999/xlink" x="0px" y="0px"
	 width="60px" height="60px" viewBox="0 0 60 60" enable-background="new 0 0 60 60" xml:space="preserve">
<g>
	<g>
		<g>
			<path fill="#FFFFFF" d="M30,59.684c16.396,0,29.685-13.29,29.685-29.684C59.685,13.605,46.396,0.316,30,0.316
				C13.604,0.316,0.315,13.606,0.315,30C0.317,46.394,13.604,59.684,30,59.684"/>
		</g>
	</g>
</g>
<g>
	<path fill="#4369AE" d="M20.951,37.098c-0.868,0-1.688-0.149-2.457-0.452c-0.771-0.301-1.446-0.744-2.026-1.333
		c-0.582-0.588-1.039-1.319-1.375-2.194c-0.337-0.875-0.505-1.887-0.505-3.035c0-1.133,0.175-2.145,0.525-3.033
		c0.35-0.889,0.818-1.643,1.406-2.258c0.588-0.616,1.273-1.084,2.059-1.407c0.784-0.322,1.609-0.483,2.478-0.483
		c0.883,0,1.674,0.178,2.373,0.535c0.7,0.357,1.28,0.774,1.743,1.25l-1.639,1.975c-0.35-0.322-0.718-0.584-1.103-0.789
		c-0.386-0.202-0.823-0.303-1.312-0.303c-0.462,0-0.899,0.102-1.312,0.303c-0.413,0.203-0.771,0.494-1.07,0.873
		c-0.301,0.377-0.539,0.84-0.715,1.386c-0.175,0.546-0.263,1.162-0.263,1.848c0,1.415,0.301,2.511,0.903,3.286
		c0.602,0.777,1.407,1.166,2.415,1.166c0.56,0,1.061-0.123,1.502-0.367c0.439-0.244,0.829-0.549,1.165-0.914l1.638,1.932
		C24.232,36.426,22.756,37.098,20.951,37.098z"/>
	<path fill="#4369AE" d="M30,37.098c-0.896,0-1.787-0.165-2.676-0.493c-0.891-0.328-1.685-0.822-2.386-1.48l1.765-2.12
		c0.49,0.42,1.033,0.764,1.629,1.028c0.594,0.267,1.179,0.398,1.752,0.398c0.645,0,1.125-0.119,1.438-0.357
		c0.314-0.236,0.474-0.559,0.474-0.965c0-0.211-0.045-0.393-0.137-0.547s-0.226-0.29-0.398-0.408
		c-0.176-0.119-0.387-0.231-0.631-0.336s-0.515-0.222-0.81-0.348l-1.784-0.756c-0.351-0.141-0.689-0.322-1.019-0.546
		s-0.623-0.486-0.884-0.787c-0.258-0.302-0.465-0.651-0.618-1.05c-0.154-0.399-0.229-0.852-0.229-1.354
		c0-0.56,0.118-1.088,0.356-1.585c0.237-0.497,0.573-0.931,1.008-1.302s0.947-0.662,1.543-0.872c0.595-0.21,1.25-0.314,1.963-0.314
		c0.8,0,1.587,0.153,2.363,0.461c0.776,0.309,1.459,0.756,2.047,1.344l-1.573,1.953c-0.449-0.35-0.896-0.619-1.345-0.809
		c-0.449-0.189-0.944-0.283-1.492-0.283c-0.53,0-0.954,0.108-1.27,0.325c-0.315,0.218-0.474,0.522-0.474,0.914
		c0,0.21,0.053,0.39,0.157,0.536s0.252,0.279,0.44,0.398s0.41,0.231,0.662,0.336c0.252,0.105,0.524,0.222,0.817,0.348l1.765,0.714
		c0.841,0.336,1.502,0.798,1.984,1.386c0.483,0.588,0.725,1.365,0.725,2.332c0,0.573-0.114,1.115-0.346,1.627
		c-0.23,0.512-0.566,0.959-1.009,1.344c-0.442,0.386-0.983,0.693-1.627,0.925C31.541,36.983,30.812,37.098,30,37.098z"/>
	<path fill="#4369AE" d="M40.248,37.098c-0.896,0-1.789-0.165-2.678-0.493c-0.89-0.328-1.684-0.822-2.384-1.48l1.765-2.12
		c0.489,0.42,1.033,0.764,1.627,1.028c0.596,0.266,1.18,0.398,1.754,0.398c0.645,0,1.123-0.119,1.438-0.357
		c0.313-0.236,0.474-0.559,0.474-0.965c0-0.211-0.047-0.393-0.138-0.547c-0.092-0.154-0.225-0.29-0.399-0.408
		c-0.174-0.119-0.385-0.231-0.629-0.336c-0.246-0.104-0.516-0.222-0.81-0.348l-1.784-0.756c-0.351-0.141-0.689-0.322-1.019-0.546
		c-0.33-0.224-0.623-0.486-0.884-0.787c-0.26-0.302-0.465-0.651-0.618-1.05c-0.154-0.399-0.231-0.852-0.231-1.354
		c0-0.56,0.119-1.088,0.357-1.585c0.236-0.497,0.572-0.931,1.008-1.302c0.434-0.371,0.948-0.662,1.544-0.872
		c0.595-0.21,1.249-0.314,1.963-0.314c0.8,0,1.586,0.153,2.363,0.461c0.776,0.309,1.459,0.756,2.047,1.344l-1.575,1.953
		c-0.447-0.35-0.896-0.619-1.344-0.809c-0.448-0.189-0.943-0.283-1.491-0.283c-0.532,0-0.955,0.108-1.271,0.325
		c-0.315,0.218-0.473,0.522-0.473,0.914c0,0.21,0.053,0.39,0.156,0.536c0.105,0.146,0.252,0.279,0.441,0.398
		c0.188,0.119,0.41,0.231,0.662,0.336c0.252,0.105,0.523,0.222,0.817,0.348l1.765,0.714c0.84,0.336,1.502,0.798,1.983,1.386
		c0.484,0.588,0.726,1.365,0.726,2.332c0,0.573-0.115,1.115-0.347,1.627s-0.567,0.959-1.008,1.344
		c-0.44,0.386-0.983,0.693-1.628,0.925C41.789,36.983,41.061,37.098,40.248,37.098z"/>
</g>
<g>
	<path fill="#4369AE" d="M30.001,56.309c-14.507,0-26.31-11.802-26.31-26.309S15.494,3.691,30.001,3.691
		c1.121,0,2.029,0.909,2.029,2.03s-0.908,2.03-2.029,2.03c-12.27,0-22.25,9.98-22.25,22.249s9.98,22.25,22.25,22.25
		c12.269,0,22.25-9.981,22.25-22.25c0-1.12,0.908-2.029,2.029-2.029S56.309,28.88,56.309,30
		C56.31,44.507,44.508,56.309,30.001,56.309z"/>
</g>
</svg>
