<?xml version="1.0" encoding="utf-8"?>
<!-- Generator: Adobe Illustrator 15.0.0, SVG Export Plug-In . SVG Version: 6.00 Build 0)  -->
<!DOCTYPE svg PUBLIC "-//W3C//DTD SVG 1.1//EN" "http://www.w3.org/Graphics/SVG/1.1/DTD/svg11.dtd">
<svg version="1.1" id="Calque_1" xmlns="http://www.w3.org/2000/svg" xmlns:xlink="http://www.w3.org/1999/xlink" x="0px" y="0px"
	 width="16px" height="16px" viewBox="0 0 16 16" enable-background="new 0 0 16 16" xml:space="preserve">
<circle fill="#FAB343" cx="8.016" cy="7.94" r="7.25"/>
<path fill="#FFFFFF" d="M4.07,7.72c0.202-2.201,2.185-3.841,4.385-3.612c1.665,0.173,3.274,1.425,3.508,3.457
	c0,0.241,0,0.481,0,0.722c-0.293,2.062-1.524,3.186-3.559,3.507c-0.275,0-0.55,0-0.826,0c-2.041-0.314-3.241-1.471-3.508-3.559
	C4.07,8.063,4.07,7.892,4.07,7.72z"/>
<g>
	<path fill="#010101" d="M11.366,6.841c0.161,1.125-0.62,2.165-1.745,2.326c-1.124,0.16-2.165-0.621-2.325-1.745
		c-0.16-1.124,0.62-2.165,1.745-2.326C10.165,4.937,11.206,5.717,11.366,6.841z"/>
</g>
</svg>
