<?xml version="1.0" encoding="utf-8"?>
<!-- Generator: Adobe Illustrator 15.0.0, SVG Export Plug-In . SVG Version: 6.00 Build 0)  -->
<!DOCTYPE svg PUBLIC "-//W3C//DTD SVG 1.1//EN" "http://www.w3.org/Graphics/SVG/1.1/DTD/svg11.dtd">
<svg version="1.1" id="Calque_1" xmlns="http://www.w3.org/2000/svg" xmlns:xlink="http://www.w3.org/1999/xlink" x="0px" y="0px"
	 width="60px" height="60px" viewBox="0 0 60 60" enable-background="new 0 0 60 60" xml:space="preserve">
<g>
	<g>
		<g>
			<path fill="#FFFFFF" d="M30,59.685c16.395,0,29.686-13.291,29.686-29.684C59.686,13.604,46.395,0.315,30,0.315
				c-16.396,0-29.685,13.29-29.685,29.686C0.315,46.394,13.604,59.685,30,59.685"/>
		</g>
	</g>
</g>
<g>
	<path fill="#ED453F" d="M12.024,35.216V24.784h2.353V28.8h3.6v-4.016h2.367v10.432h-2.367v-4.353h-3.6v4.353H12.024z"/>
	<path fill="#ED453F" d="M24.04,35.216v-8.448h-2.865v-1.983h8.098v1.983h-2.865v8.448H24.04L24.04,35.216z"/>
	<path fill="#ED453F" d="M30.103,35.216V24.784h2.577l1.68,4.64c0.107,0.311,0.209,0.627,0.305,0.952s0.197,0.647,0.305,0.968h0.064
		c0.105-0.32,0.205-0.643,0.295-0.968s0.189-0.644,0.297-0.952l1.646-4.64h2.561v10.432h-2.145v-3.823
		c0-0.256,0.012-0.539,0.033-0.849s0.047-0.622,0.08-0.937c0.031-0.313,0.062-0.623,0.096-0.928c0.031-0.304,0.062-0.584,0.096-0.84
		h-0.064l-0.848,2.48l-1.488,3.984h-1.295l-1.486-3.984l-0.832-2.48h-0.066c0.031,0.256,0.064,0.536,0.096,0.84
		c0.031,0.305,0.064,0.614,0.096,0.928c0.033,0.314,0.059,0.627,0.08,0.937s0.033,0.593,0.033,0.849v3.823H30.103z"/>
	<path fill="#ED453F" d="M41.496,35.216V24.784h2.352v8.448h4.129v1.983H41.496L41.496,35.216z"/>
</g>
<g>
	<path fill="#ED453F" d="M30,56.309c-14.507,0-26.31-11.802-26.31-26.31C3.691,15.493,15.493,3.691,30,3.691
		c1.121,0,2.029,0.909,2.029,2.03S31.121,7.751,30,7.751c-12.27,0-22.25,9.98-22.25,22.25c0,12.269,9.981,22.248,22.25,22.248
		c12.269,0,22.25-9.98,22.25-22.25c0-1.121,0.908-2.029,2.029-2.029s2.029,0.908,2.029,2.029C56.309,44.507,44.508,56.309,30,56.309
		z"/>
</g>
</svg>
