<?xml version="1.0" encoding="utf-8"?>
<!-- Generator: Adobe Illustrator 15.0.0, SVG Export Plug-In . SVG Version: 6.00 Build 0)  -->
<!DOCTYPE svg PUBLIC "-//W3C//DTD SVG 1.1//EN" "http://www.w3.org/Graphics/SVG/1.1/DTD/svg11.dtd">
<svg version="1.1" id="Calque_1" xmlns="http://www.w3.org/2000/svg" xmlns:xlink="http://www.w3.org/1999/xlink" x="0px" y="0px"
	 width="60px" height="60px" viewBox="0 0 60 60" enable-background="new 0 0 60 60" xml:space="preserve">
<g>
	<g>
		<g>
			<path fill="#FFFFFF" d="M30,59.684c16.396,0,29.684-13.291,29.684-29.684C59.684,13.605,46.396,0.316,30,0.316
				C13.605,0.316,0.316,13.605,0.316,30C0.315,46.393,13.605,59.684,30,59.684"/>
		</g>
	</g>
</g>
<g>
	<path fill="#F6A733" d="M19.472,40.107l5.712-18.255h4.956l5.712,18.255h-4.368l-1.119-4.34h-5.572l-1.12,4.34H19.472z
		 M26.079,30.868l-0.447,1.68h3.892l-0.42-1.68c-0.262-0.914-0.514-1.886-0.756-2.912c-0.243-1.025-0.485-2.016-0.728-2.968h-0.112
		c-0.224,0.971-0.453,1.965-0.687,2.983C26.588,28.986,26.341,29.954,26.079,30.868z"/>
	<path fill="#F6A733" d="M38.147,24.176c-0.689,0-1.26-0.2-1.708-0.602c-0.448-0.401-0.672-0.919-0.672-1.554
		c0-0.634,0.224-1.148,0.672-1.54s1.019-0.588,1.708-0.588c0.709,0,1.283,0.196,1.723,0.588c0.438,0.392,0.658,0.906,0.658,1.54
		c0,0.635-0.221,1.153-0.658,1.554C39.431,23.976,38.856,24.176,38.147,24.176z M36.104,40.107V26.22h4.116v13.887H36.104
		L36.104,40.107z"/>
</g>
<g>
	<path fill="#F6A733" d="M30,56.309C15.493,56.309,3.691,44.506,3.691,30C3.691,15.493,15.493,3.691,30,3.691
		c14.508,0,26.309,11.802,26.309,26.309C56.309,44.506,44.506,56.309,30,56.309z M30,7.75C17.731,7.75,7.75,17.731,7.75,30
		c0,12.268,9.981,22.249,22.25,22.249c12.27,0,22.25-9.979,22.25-22.249C52.25,17.731,42.268,7.75,30,7.75z"/>
</g>
</svg>
