<?xml version="1.0" encoding="utf-8"?>
<!-- Generator: Adobe Illustrator 15.0.0, SVG Export Plug-In . SVG Version: 6.00 Build 0)  -->
<!DOCTYPE svg PUBLIC "-//W3C//DTD SVG 1.1//EN" "http://www.w3.org/Graphics/SVG/1.1/DTD/svg11.dtd">
<svg version="1.1" id="Calque_1" xmlns="http://www.w3.org/2000/svg" xmlns:xlink="http://www.w3.org/1999/xlink" x="0px" y="0px"
	 width="60px" height="60px" viewBox="0 0 60 60" enable-background="new 0 0 60 60" xml:space="preserve">
<g>
	<g>
		<g>
			<path fill="#FFFFFF" d="M30,59.686c16.395,0,29.684-13.291,29.684-29.686C59.684,13.604,46.395,0.315,30,0.315
				C13.604,0.315,0.315,13.605,0.315,30C0.315,46.395,13.604,59.686,30,59.686"/>
		</g>
	</g>
</g>
<g>
	<g>
		<path fill="#EE628B" d="M20.214,39.127V20.872h4.116v18.255H20.214z"/>
	</g>
	<g>
		<path fill="#EE628B" d="M27.011,39.127V22.828h4.6c1.25,0,2.375,0.158,3.375,0.475c1,0.317,1.859,0.805,2.576,1.463
			s1.266,1.496,1.649,2.512c0.384,1.018,0.574,2.225,0.574,3.625c0,1.4-0.19,2.617-0.574,3.65c-0.385,1.033-0.926,1.889-1.625,2.562
			c-0.7,0.676-1.538,1.18-2.514,1.512c-0.976,0.334-2.062,0.5-3.263,0.5H27.011z M30.687,36.152h0.699
			c0.7,0,1.334-0.092,1.899-0.275c0.565-0.182,1.051-0.479,1.45-0.887c0.398-0.41,0.712-0.945,0.938-1.613
			c0.227-0.666,0.338-1.49,0.338-2.474c0-0.965-0.111-1.779-0.338-2.438c-0.226-0.658-0.537-1.184-0.938-1.576
			c-0.4-0.391-0.885-0.67-1.45-0.838c-0.565-0.166-1.199-0.25-1.899-0.25h-0.699V36.152z"/>
	</g>
</g>
<g>
	<path fill="#EE628B" d="M30,56.309C15.493,56.309,3.69,44.508,3.69,30c0-14.508,11.802-26.31,26.31-26.31
		c14.506,0,26.309,11.802,26.309,26.31C56.309,44.508,44.506,56.309,30,56.309z M30,7.751C17.73,7.751,7.75,17.731,7.75,30
		C7.75,42.27,17.73,52.25,30,52.25c12.268,0,22.25-9.98,22.25-22.25C52.25,17.731,42.268,7.751,30,7.751z"/>
</g>
</svg>
