<?xml version="1.0" encoding="utf-8"?>
<!-- Generator: Adobe Illustrator 15.0.0, SVG Export Plug-In . SVG Version: 6.00 Build 0)  -->
<!DOCTYPE svg PUBLIC "-//W3C//DTD SVG 1.1//EN" "http://www.w3.org/Graphics/SVG/1.1/DTD/svg11.dtd">
<svg version="1.1" id="Calque_1" xmlns="http://www.w3.org/2000/svg" xmlns:xlink="http://www.w3.org/1999/xlink" x="0px" y="0px"
	 width="60px" height="60px" viewBox="0 0 60 60" enable-background="new 0 0 60 60" xml:space="preserve">
<g>
	<g>
		<g>
			<path fill="#FFFFFF" d="M29.999,59.684c16.396,0,29.686-13.29,29.686-29.684c0-16.395-13.29-29.684-29.686-29.684
				C13.604,0.316,0.315,13.606,0.315,30C0.315,46.394,13.604,59.684,29.999,59.684"/>
		</g>
	</g>
</g>
<g>
	<path fill="#6DBC4E" d="M24.277,37.097c-1.049,0-1.929-0.203-2.636-0.608c-0.707-0.405-1.298-1.028-1.774-1.869l2.101-1.554
		c0.252,0.462,0.546,0.805,0.882,1.029c0.337,0.224,0.679,0.336,1.029,0.336c0.56,0,0.983-0.172,1.271-0.517
		c0.287-0.342,0.431-0.969,0.431-1.879v-8.882h3.087v9.134c0,0.658-0.087,1.281-0.262,1.869c-0.176,0.588-0.441,1.101-0.799,1.533
		c-0.356,0.434-0.812,0.776-1.365,1.028C25.689,36.972,25.033,37.097,24.277,37.097z"/>
	<path fill="#6DBC4E" d="M34.968,37.097c-0.896,0-1.789-0.164-2.678-0.493c-0.89-0.329-1.685-0.822-2.384-1.48l1.765-2.12
		c0.489,0.42,1.032,0.764,1.627,1.028c0.595,0.267,1.181,0.399,1.754,0.399c0.644,0,1.123-0.119,1.438-0.357
		c0.313-0.238,0.473-0.561,0.473-0.966c0-0.21-0.046-0.392-0.137-0.546c-0.092-0.154-0.226-0.291-0.399-0.41s-0.385-0.23-0.63-0.336
		c-0.245-0.104-0.516-0.221-0.809-0.346l-1.785-0.756c-0.35-0.141-0.689-0.322-1.019-0.547c-0.329-0.224-0.622-0.486-0.883-0.787
		c-0.259-0.301-0.465-0.65-0.619-1.05c-0.153-0.399-0.231-0.851-0.231-1.354c0-0.56,0.119-1.088,0.357-1.584
		c0.238-0.497,0.574-0.931,1.008-1.302c0.435-0.371,0.948-0.662,1.545-0.872c0.595-0.21,1.248-0.315,1.963-0.315
		c0.799,0,1.586,0.154,2.363,0.462c0.775,0.308,1.459,0.755,2.047,1.344l-1.576,1.951c-0.447-0.351-0.896-0.62-1.344-0.81
		c-0.447-0.188-0.943-0.282-1.49-0.282c-0.532,0-0.955,0.108-1.271,0.325c-0.314,0.217-0.472,0.521-0.472,0.914
		c0,0.209,0.052,0.389,0.157,0.535c0.104,0.147,0.252,0.28,0.439,0.399c0.189,0.119,0.41,0.231,0.662,0.336s0.523,0.222,0.818,0.347
		l1.765,0.715c0.84,0.336,1.501,0.798,1.983,1.386c0.483,0.588,0.726,1.364,0.726,2.33c0,0.573-0.115,1.116-0.347,1.629
		c-0.231,0.511-0.567,0.959-1.008,1.344c-0.441,0.386-0.983,0.692-1.629,0.925C36.508,36.981,35.779,37.097,34.968,37.097z"/>
</g>
<g>
	<path fill="#6DBC4E" d="M30,56.309C15.493,56.309,3.691,44.506,3.691,30C3.691,15.493,15.493,3.691,30,3.691
		c1.121,0,2.029,0.909,2.029,2.03c0,1.121-0.908,2.03-2.029,2.03C17.731,7.751,7.75,17.732,7.75,30
		c0,12.269,9.981,22.25,22.25,22.25c12.27,0,22.25-9.981,22.25-22.25c0-1.121,0.908-2.029,2.029-2.029s2.029,0.908,2.029,2.029
		C56.309,44.506,44.506,56.309,30,56.309z"/>
</g>
</svg>
