<?xml version="1.0" encoding="utf-8"?>
<!-- Generator: Adobe Illustrator 15.0.0, SVG Export Plug-In . SVG Version: 6.00 Build 0)  -->
<!DOCTYPE svg PUBLIC "-//W3C//DTD SVG 1.1//EN" "http://www.w3.org/Graphics/SVG/1.1/DTD/svg11.dtd">
<svg version="1.1" id="Calque_1" xmlns="http://www.w3.org/2000/svg" xmlns:xlink="http://www.w3.org/1999/xlink" x="0px" y="0px"
	 width="1920px" height="1080px" viewBox="0 0 1920 1080" enable-background="new 0 0 1920 1080" xml:space="preserve">
<rect x="-27.779" y="-30.738" fill="#F5F5F5" width="2013.201" height="1284.127"/>
<g>
	<path fill="#FFB442" d="M1519.3,973.471c-0.714-1.761-2.723-2.607-4.479-1.895c-2.886,1.173-5.211,2.087-6.947,2.746
		c-1.022-10.791-4.522-17.723-10.233-20.155c-0.652-0.279-1.387-0.515-2.193-0.675c0.01-1.396-0.07-2.79-0.206-4.173
		c-0.187-1.887-0.794-4.151-1.761-6.634c3.359,0.691,6.177,0.947,8.476,0.745c2.878-0.251,4.964-1.202,6.352-2.864
		c4.001-4.784,0.031-13.072-3.159-19.734c-0.059-0.119-0.112-0.236-0.171-0.355c0.664-0.67,1.146-1.505,1.387-2.479
		c0.475-1.926-0.403-8.637-0.492-9.142c-0.124-0.716-0.671-1.524-1.613-1.717c-0.026-0.007-0.054-0.012-0.08-0.015
		c-1.163-0.181-1.776,0.798-2.148,1.447c-0.06-0.294-0.11-0.619-0.148-0.863c-0.186-1.186-0.346-2.21-1.146-2.686
		c-0.259-0.152-0.521-0.251-0.784-0.292c-0.75-0.115-1.783,0.135-2.447,1.987c-0.17,0.475-0.244,0.987-0.31,1.438
		c-0.034,0.24-0.082,0.566-0.14,0.781c-0.437-0.212-1.043-0.975-1.26-1.246l-0.072-0.093c-0.478-0.594-1.238-1.338-2.141-1.479
		c-0.533-0.083-1.058,0.06-1.473,0.404c-1.051,0.874-0.525,2.482-0.304,3.168l0.006,0.019c0.237,0.729,0.733,1.725,1.029,2.321
		l0.042,0.083c0.157,0.318,0.322,0.624,0.467,0.894c0.046,0.086,0.097,0.18,0.146,0.272c-2.261-0.255-3.046,0.631-3.304,1.442
		c-0.389,1.234,0.532,2.258,0.978,2.747c0.028,0.033,0.056,0.062,0.08,0.089c0.562,0.641,1.05,1.065,1.539,1.483
		c1.248,1.062,2.125,1.761,3.809,2.47c0.743,0.315,1.515,0.535,2.292,0.656c0,0,0,0.001,0,0c0.465,0.073,0.921,0.106,1.362,0.107
		c0.115,0.24,0.229,0.48,0.35,0.729c1.388,2.896,2.958,6.177,3.788,9.042c0.75,2.597,0.77,4.422,0.052,5.279
		c-0.52,0.621-3.042,2.409-13.693-0.484c-7.604-14.036-23.701-30.784-40.429-28.618c-22.092,2.859-27.61,27.264-24.491,46.833
		c-4.404-0.523-7.607,0.333-9.685,2.586c-4.789,5.2-1.086,15.562,2.622,23.571c-0.356,0.331-0.677,0.711-0.943,1.149
		c-1.033,1.693-2.218,8.357-2.283,8.864c-0.099,0.721,0.18,1.656,1.02,2.123c0.024,0.014,0.05,0.026,0.073,0.038
		c1.055,0.523,1.936-0.226,2.483-0.732c-0.033,0.298-0.082,0.623-0.119,0.868c-0.181,1.186-0.336,2.209,0.284,2.904
		c0.197,0.223,0.422,0.396,0.661,0.516c0.68,0.336,1.737,0.407,2.932-1.157c0.303-0.4,0.527-0.867,0.729-1.279
		c0.104-0.218,0.248-0.515,0.364-0.701c0.355,0.334,0.703,1.244,0.828,1.565l0.039,0.108c0.277,0.712,0.779,1.648,1.597,2.056
		c0.485,0.24,1.026,0.261,1.524,0.058c1.269-0.516,1.252-2.205,1.246-2.928v-0.021c-0.006-0.764-0.178-1.864-0.282-2.522
		l-0.015-0.093c-0.056-0.353-0.119-0.691-0.175-0.992c-0.02-0.096-0.038-0.198-0.06-0.304c2.08,0.923,3.095,0.314,3.584-0.382
		c0.743-1.062,0.173-2.312-0.104-2.913c-0.018-0.04-0.035-0.077-0.051-0.109c-0.344-0.779-0.68-1.334-1.02-1.878
		c-0.87-1.389-1.498-2.319-2.887-3.501c-0.615-0.525-1.285-0.968-1.988-1.317c0,0,0-0.002-0.001,0
		c-0.841-0.417-1.69-0.682-2.516-0.802c-6.193-13.18-5.08-17.418-3.837-18.771c0.593-0.642,2.316-1.672,7.052-0.736
		c1.903,7.575,5.141,13.93,9.165,17.231c5.503,4.516,11.553,6.214,17.737,6.228l0.427,16.268c0.048,1.821,1.507,3.29,3.329,3.345
		l9.844,0.308c0.025,0.001,0.053,0.002,0.079,0.003c1.861,0.015,3.406-1.46,3.465-3.332c0.059-1.899-1.435-3.485-3.331-3.544
		l-6.596-0.204l-0.354-13.46c5.803-1.068,10.493-3.558,14.041-6.926c0.036-0.013,0.074-0.022,0.109-0.035
		c12.443-3.915,17.711-9.653,19.649-15.883c0.163,0.047,0.321,0.1,0.477,0.165c3.666,1.562,6.032,8.505,6.334,18.568
		c0.034,1.127,0.627,2.183,1.569,2.797c1.311,0.854,2.59,0.584,3.672,0.25c0.144-0.045,0.283-0.091,0.419-0.136
		c0.68-0.221,1.617-0.556,2.786-0.996c1.987-0.747,4.717-1.82,7.685-3.023C1519.166,977.235,1520.014,975.23,1519.3,973.471z"/>
	<g>
		<g>
			
				<ellipse transform="matrix(0.8855 -0.4647 0.4647 0.8855 -263.0535 789.4546)" fill="#FFFFFF" cx="1470.04" cy="928.384" rx="7.725" ry="7.497"/>
		</g>
	</g>
	<g>
		<g>
			<circle cx="1472.271" cy="927.948" r="4.089"/>
		</g>
	</g>
	<g>
		<g>
			
				<ellipse transform="matrix(0.8855 -0.4647 0.4647 0.8855 -268.5989 781.2828)" fill="#FFFFFF" cx="1450.679" cy="935.544" rx="7.724" ry="7.498"/>
		</g>
	</g>
	<g>
		<g>
			<circle cx="1452.859" cy="935.112" r="4.089"/>
		</g>
	</g>
	<g>
		<g>
			<path fill="#F1608C" d="M1464.923,952.955c-1.708,0.147-3.298-0.998-3.659-2.718c-0.39-1.855,0.795-3.679,2.647-4.071
				c0.089-0.02,5.599-1.246,9.825-4.722c1.467-1.206,3.633-0.995,4.84,0.471c1.206,1.467,0.994,3.634-0.473,4.84
				c-5.574,4.584-12.477,6.077-12.769,6.14C1465.198,952.923,1465.061,952.942,1464.923,952.955z"/>
		</g>
		<g>
			<path d="M1464.872,950.552c-0.567,0.074-1.105-0.224-1.238-0.708c-0.145-0.521,0.236-1.062,0.853-1.208
				c0.103-0.024,6.071-1.479,10.653-5.024c0.479-0.371,1.2-0.352,1.612,0.046c0.412,0.396,0.358,1.016-0.119,1.387
				c-5.035,3.896-11.357,5.421-11.624,5.484C1464.963,950.537,1464.917,950.546,1464.872,950.552z"/>
		</g>
	</g>
</g>
<polygon fill="#E0E0FF" points="1920,1094.816 1920,855.855 1867.729,855.855 1867.729,871.674 1825.776,871.674 1825.776,887.493 
	1783.823,887.493 1783.823,903.312 1741.871,903.312 1741.871,919.129 1699.917,919.129 1699.917,934.948 1657.964,934.948 
	1657.964,950.767 1616.011,950.767 1616.011,966.585 1574.058,966.585 1574.058,982.403 1532.104,982.403 1532.104,998.222 
	1490.15,998.222 1490.15,1014.04 1448.197,1014.04 1448.197,1029.857 1406.244,1029.857 1406.244,1045.677 1364.29,1045.677 
	1364.29,1061.495 1322.337,1061.495 1322.337,1095.191 "/>
</svg>
