<?xml version="1.0" encoding="utf-8"?>
<!-- Generator: Adobe Illustrator 15.0.0, SVG Export Plug-In . SVG Version: 6.00 Build 0)  -->
<!DOCTYPE svg PUBLIC "-//W3C//DTD SVG 1.1//EN" "http://www.w3.org/Graphics/SVG/1.1/DTD/svg11.dtd">
<svg version="1.1" xmlns="http://www.w3.org/2000/svg" xmlns:xlink="http://www.w3.org/1999/xlink" x="0px" y="0px" width="1920px"
	 height="1080px" viewBox="0 0 1920 1080" enable-background="new 0 0 1920 1080" xml:space="preserve">
<g id="Calque_2">
	<rect x="-108.788" y="-66.741" fill="#DFDFFE" width="2091.209" height="1260.126"/>
</g>
<g id="Calque_1">
	<g id="u3mvoi_4_">
		<g>
			<g>
				<path fill="#FFEDD6" d="M960.455,480.084c0.758-0.194,2.776,0.157,3.424,0.596C962.737,480.481,961.597,480.283,960.455,480.084
					z"/>
			</g>
			<g>
				<path fill="#FBBB69" d="M916.183,522.741c-0.11,0.634-0.221,1.268-0.331,1.901C915.572,524.382,915.832,522.891,916.183,522.741
					z"/>
			</g>
			<g>
				<path fill="#FFEDD6" d="M873.357,567.218c-0.188,1.077-0.376,2.155-0.564,3.233
					C872.589,569.756,872.929,567.803,873.357,567.218z"/>
			</g>
			<g>
				<path fill="#FBBB69" d="M957.171,630.611c2.148,0.048,5.569,0.645,7.608,1.323C962.243,631.495,959.707,631.054,957.171,630.611
					z"/>
			</g>
			<g>
				<path fill="#FED79E" d="M919.066,492.67c0.977-0.826,2.02-1.559,3.127-2.198C921.217,491.297,920.175,492.03,919.066,492.67z"/>
			</g>
			<g>
				<path fill="#FFEDD6" d="M882.245,615.212c0.772,0.901,1.455,1.87,2.042,2.904C883.513,617.214,882.832,616.246,882.245,615.212z
					"/>
			</g>
			<g>
				<path fill="#FBBB69" d="M884.287,618.116c-0.587-1.034-1.27-2.003-2.042-2.904c-0.01-0.16-0.158-0.223-0.124-0.414
					c0.932,1.126,1.769,2.317,2.513,3.574C884.487,618.309,884.479,618.148,884.287,618.116z"/>
			</g>
			<g>
				<path fill="#FED79E" d="M1007.092,513.878c0.827,0.976,1.562,2.019,2.199,3.127
					C1008.465,516.028,1007.731,514.986,1007.092,513.878z"/>
			</g>
			<g>
				<path fill="#FED79E" d="M976.881,512.929c0.569-0.227,2.395,0.091,2.854,0.497C978.782,513.259,977.832,513.094,976.881,512.929
					z"/>
			</g>
			<g>
				<path fill="#FBBB69" d="M962.075,523.677c-0.156,0.889-0.31,1.775-0.465,2.664C961.373,525.833,961.68,524.074,962.075,523.677z
					"/>
			</g>
			<g>
				<path fill="#FED79E" d="M945.384,527.238c0.237,0.506-0.068,2.266-0.464,2.662C945.074,529.014,945.229,528.125,945.384,527.238
					z"/>
			</g>
			<g>
				<path fill="#FED79E" d="M874.144,563.826c-0.267,0.807-0.126,2.193-0.653,2.63C873.756,565.649,873.616,564.263,874.144,563.826
					z"/>
			</g>
			<g>
				<path fill="#FBBB69" d="M872.661,571.212c0.388,0.339-0.159,1.336-0.142,1.935C872.132,572.808,872.68,571.811,872.661,571.212z
					"/>
			</g>
			<g>
				<path fill="#FED79E" d="M952.573,630.007c0.589-0.349,1.846,0.252,2.695,0.274C954.68,630.629,953.423,630.028,952.573,630.007z
					"/>
			</g>
			<g>
				<path fill="#FED79E" d="M966.683,632.269c0.558,0.221,1.681,0.041,1.868,0.521C967.994,632.569,966.87,632.748,966.683,632.269z
					"/>
			</g>
			<g>
				<path fill="#FBBB69" d="M906.87,633.61c0.619,0.232,1.81,0.062,2.059,0.556C908.31,633.934,907.12,634.104,906.87,633.61z"/>
			</g>
			<g>
				<path fill="#FBBB69" d="M933.504,655.104c0.259,0.383-0.025,2.011-0.396,2.283C933.239,656.625,933.372,655.864,933.504,655.104
					z"/>
			</g>
			<g>
				<path fill="#FED79E" d="M986.859,677.329c0.634,0.11,1.27,0.222,1.901,0.332C988.501,677.939,987.01,677.679,986.859,677.329z"
					/>
			</g>
			<g>
				<path fill="#FED79E" d="M904.292,665.303c-0.122,0.697-0.244,1.396-0.365,2.091C903.658,667.072,903.93,665.514,904.292,665.303
					z"/>
			</g>
			<g>
				<path fill="#FED79E" d="M926.5,540.02c1.014,0.178,2.029,0.354,3.043,0.529C928.911,540.766,927.021,540.438,926.5,540.02z"/>
			</g>
		</g>
	</g>
	<path fill="#FFB442" d="M1081.726,521.874c0.053-0.604-0.003-1.173-0.159-1.69c-0.45-1.47-1.82-3.134-5.793-2.707
		c-1.013,0.108-2.015,0.428-2.899,0.709c-0.466,0.147-1.104,0.351-1.542,0.437c-0.004-0.986,0.851-2.769,1.156-3.4l0.103-0.214
		c0.664-1.399,1.349-3.441,0.806-5.213c-0.321-1.05-1.047-1.876-2.038-2.328c-2.526-1.146-4.996,1.23-6.052,2.246l-0.028,0.027
		c-1.118,1.075-2.501,2.864-3.327,3.933l-0.117,0.152c-0.441,0.568-0.854,1.139-1.216,1.641c-0.118,0.16-0.242,0.333-0.37,0.507
		c-1.534-4.351-3.847-5-5.554-4.75c-2.598,0.381-3.649,2.97-4.151,4.212c-0.034,0.081-0.063,0.157-0.093,0.226
		c-0.667,1.592-1.019,2.857-1.349,4.123c-0.837,3.215-1.33,5.435-1.141,9.131c0.083,1.637,0.363,3.24,0.828,4.766
		c0,0,0,0,0.001,0.001c0.992,3.235,2.729,5.84,4.902,7.607c0.77,4.756,2.223,14.011,2.139,22.675
		c-0.089,9.386-1.946,15.637-5.231,17.604c-1.696,1.017-6.449,2.171-17.474-4.507l-1.631-9.737
		c-4.153-19.056-12.39-35.239-22.203-50.314c-0.826-0.976-1.56-2.019-2.199-3.126c-10.848-13.568-21.305-27.411-43.213-33.199
		c-1.142-0.198-2.282-0.396-3.424-0.596c-16.263-1.525-27.778,3.696-38.261,10.388c-0.978,0.826-2.02,1.56-3.126,2.198
		c-18.979,15.191-34.153,35.793-43.188,65.123c-16.363,11.961-22.765,10.507-24.789,9.281c-3.273-1.983-5.097-8.246-5.134-17.633
		c-0.03-7.532,1.104-15.503,1.922-20.58c3.114-0.927,6.038-3.188,8.187-6.577l0,0c0.853-1.349,1.547-2.819,2.061-4.376
		c1.161-3.516,1.272-5.785,1.315-9.108c0.016-1.306,0.013-2.619-0.209-4.332c-0.01-0.073-0.019-0.152-0.03-0.242
		c-0.156-1.332-0.485-4.104-2.89-5.158c-1.581-0.694-3.982-0.678-6.612,3.112c-0.076-0.202-0.151-0.401-0.222-0.587
		c-0.219-0.58-0.465-1.238-0.739-1.904l-0.072-0.178c-0.516-1.249-1.376-3.34-2.17-4.672l-0.021-0.034
		c-0.748-1.258-2.504-4.205-5.242-3.766c-1.077,0.174-1.993,0.778-2.581,1.706c-0.992,1.563-0.873,3.714-0.603,5.241l0.043,0.232
		c0.125,0.689,0.479,2.634,0.216,3.584c-0.402-0.2-0.964-0.562-1.373-0.829c-0.779-0.505-1.664-1.076-2.61-1.448
		c-3.717-1.462-5.477-0.221-6.302,1.078c-0.289,0.458-0.492,0.992-0.603,1.589c-0.344,1.856,1.006,3.469,2.568,5.334
		c0.322,0.384,0.75,0.896,1.119,1.38c-1.487-0.299-3.8-0.671-5.076,1.346c-0.029,0.046-0.059,0.094-0.085,0.144
		c-0.963,1.692-0.46,3.608,0.466,4.756c0.558,0.69,7.264,8.316,11.434,11.673c-0.874,5.356-2.152,14.131-2.118,22.657
		c0.021,5.728,0.64,10.647,1.833,14.629c1.634,5.449,4.401,9.392,8.229,11.709c2.553,1.548,5.432,2.323,8.652,2.323
		c5.183,0,11.253-2.014,18.284-6.059c-0.086,0.365-0.218,0.764-0.208,1.062c-1.302,17.05,2.543,30.481,9.601,41.651
		c0.931,1.126,1.77,2.316,2.513,3.574c5.309,6.559,11.451,12.53,22.236,15.237c0.619,0.233,1.811,0.063,2.06,0.557
		c3.66,0.853,6.401,0.4,9.519,0.48c0.493,5.607,0.533,11.532,1.145,17.056c-2.153,2.064-4.818,3.841-7.503,5.943
		c-2.573,2.021-6.497,4.367-7.799,7.656c-0.122,0.697-0.243,1.396-0.364,2.091c-0.174,4.521,4.199,8.049,8.806,6.826
		c1.54-0.408,3.745-2.353,5.327-3.579c5.093-3.951,10.95-8.374,14.915-12.494c0.043-0.254,0.088-0.507,0.133-0.76
		c0.132-0.763,0.265-1.521,0.396-2.283c-0.228-8.241-1.333-15.866-1.476-24.166c5.506-2.219,12.888-1.771,20.544-0.931
		c0.589-0.349,1.846,0.252,2.696,0.273c0.634,0.109,1.268,0.221,1.901,0.33c2.148,0.049,5.569,0.646,7.608,1.324
		c0.634,0.111,1.269,0.223,1.9,0.333c0.559,0.22,1.683,0.041,1.869,0.521c2.659,0.688,5.295,1.394,7.856,2.149
		c-0.466,4.172-0.443,8.768-0.574,13.423c-0.128,4.583-1.036,9.509-0.35,13.268c0.46,2.515,3.212,5.801,4.672,8.062
		c1.771,2.75,3.448,6.606,6.705,7.636c0.634,0.11,1.269,0.222,1.899,0.332c3.48-0.051,5.816-1.479,6.791-4.109
		c1.631-4.396-1.131-7.29-2.783-9.891c-1.235-1.943-3.256-3.817-3.515-5.708c-0.227-1.654,0.293-3.599,0.323-5.234
		c0.104-5.506,0.307-10.132,0.368-15.615c21.842-2.09,34.813-16.79,41.368-40.615c0.551-0.561,0.43-2.077,0.721-3.01
		c0.089-0.508,0.177-1.016,0.264-1.521c0.074-1.057,0.58-2.413,0.538-3.39c5.432,2.701,10.237,4.048,14.459,4.048
		c3.177,0,6.021-0.761,8.556-2.275c3.839-2.298,6.63-6.222,8.293-11.662c1.216-3.974,1.859-8.893,1.915-14.619
		c0.071-7.621-0.904-15.447-1.714-20.851c4.713-1.807,14.166-8.021,14.927-8.569c1.196-0.861,2.188-2.575,1.707-4.464
		c-0.013-0.055-0.029-0.107-0.045-0.16c-0.696-2.281-3.025-2.535-4.538-2.641c0.481-0.367,1.031-0.748,1.442-1.035
		C1079.839,524.953,1081.566,523.755,1081.726,521.874z"/>
	<g>
		<g>
			
				<ellipse transform="matrix(-0.9999 -0.0135 0.0135 -0.9999 1854.5149 1067.1631)" fill="#FFFFFF" cx="930.86" cy="527.321" rx="14.755" ry="14.321"/>
		</g>
	</g>
	<g>
		<g>
			<circle fill="#1E1B1C" cx="930.646" cy="521.871" r="7.812"/>
		</g>
	</g>
	<g>
		<path fill="#F1608C" d="M954.971,570.501c-0.21,0-0.418-0.002-0.629-0.004c-13.786-0.188-25.695-6.524-26.195-6.794
			c-3.193-1.721-4.387-5.705-2.664-8.898c1.718-3.188,5.693-4.383,8.884-2.674l0,0c0.095,0.052,9.668,5.088,20.152,5.229
			c10.299,0.146,19.017-4.521,19.103-4.568c3.174-1.757,7.172-0.608,8.929,2.563c1.757,3.176,0.607,7.173-2.565,8.93
			C979.519,564.543,968.596,570.501,954.971,570.501z"/>
	</g>
	<g>
		<g>
			<path fill="#FFFFFF" d="M991.58,528.144c-0.106,7.908-6.799,14.231-14.949,14.121c-8.148-0.11-14.667-6.611-14.561-14.521
				c0.106-7.91,6.8-14.232,14.949-14.121C985.168,513.733,991.688,520.234,991.58,528.144z"/>
		</g>
	</g>
	<g>
		<g>
			<circle fill="#1E1B1C" cx="976.622" cy="522.493" r="7.812"/>
		</g>
	</g>
	<g>
		<path fill="#1E1B1C" d="M954.983,565.297c-0.19,0-0.381-0.002-0.572-0.006c-12.524-0.17-23.342-5.925-23.796-6.17
			c-0.663-0.356-0.911-1.186-0.554-1.848c0.357-0.663,1.186-0.911,1.849-0.554c0.141,0.073,10.721,5.685,22.539,5.844
			c11.834,0.161,21.595-5.166,21.692-5.222c0.66-0.363,1.489-0.126,1.854,0.534c0.366,0.659,0.127,1.489-0.532,1.854
			C977.047,559.962,967.267,565.297,954.983,565.297z"/>
	</g>
</g>
</svg>
