<?xml version="1.0" encoding="utf-8"?>
<!-- Generator: Adobe Illustrator 15.0.0, SVG Export Plug-In . SVG Version: 6.00 Build 0)  -->
<!DOCTYPE svg PUBLIC "-//W3C//DTD SVG 1.1//EN" "http://www.w3.org/Graphics/SVG/1.1/DTD/svg11.dtd">
<svg version="1.1" xmlns="http://www.w3.org/2000/svg" xmlns:xlink="http://www.w3.org/1999/xlink" x="0px" y="0px" width="1920px"
	 height="1080px" viewBox="0 0 1920 1080" enable-background="new 0 0 1920 1080" xml:space="preserve">
<g id="Calque_2">
	<rect fill="#F5F5F5" width="1920" height="1080"/>
</g>
<g id="Calque_1">
	<g>
		<path fill="#8E8E8E" d="M484.984,249.392c-9.881,17.402-22.524,32.832-37.319,45.932c4.263,6.965,8.362,14.158,12.164,21.509
			c5.041,9.732,9.621,19.722,13.591,29.629c18.256-4.361,37.11-5.93,55.979-4.45c0.743-18.471-3.054-37.367-12.143-54.925
			C509.279,271.687,498.072,259.056,484.984,249.392L484.984,249.392z"/>
		<path fill="#8E8E8E" d="M403.867,307.312c8.428-4.371,16.344-9.478,23.824-15.127c-24.279-35.876-48.033-52.901-56.725-48.402
			c-8.7,4.507-8.495,33.729,6.792,74.27C386.691,315.208,395.432,311.679,403.867,307.312L403.867,307.312z"/>
		<path fill="#8E8E8E" d="M383.471,332.105c2.763,6.295,5.834,12.783,9.302,19.471c4.823,9.33,9.792,17.8,14.765,25.569
			c7.726-5.722,15.885-10.915,24.521-15.39c8.637-4.472,17.577-8.14,26.71-11.152c-3.469-8.547-7.525-17.49-12.352-26.817
			c-3.462-6.688-6.99-12.945-10.553-18.83c-7.876,5.87-16.209,11.193-25.051,15.775
			C401.974,325.311,392.816,329.056,383.471,332.105L383.471,332.105z"/>
		<path fill="#8E8E8E" d="M472.316,241.167c-25.021-13.605-54.957-17.344-83.254-9.175c16.229,7.864,34.17,26.852,50.294,50.511
			C452.415,270.615,463.579,256.752,472.316,241.167L472.316,241.167z"/>
		<path fill="#8E8E8E" d="M439.008,375.177c-8.119,4.201-15.77,9.103-23.017,14.508c22.675,31.441,44.084,46.118,52.23,41.899
			c8.147-4.223,8.516-30.183-4.103-66.83C455.544,367.546,447.119,370.971,439.008,375.177L439.008,375.177z"/>
		<path fill="#8E8E8E" d="M372.992,437.226c23.712,11.058,51.093,13.7,77.138,6.156c-14.735-7.14-30.881-23.442-45.814-44.113
			C392.087,410.256,381.508,423.008,372.992,437.226L372.992,437.226z"/>
		<path fill="#8E8E8E" d="M488.287,423.602c21.173-16.933,34.782-40.822,39.413-66.556c-16.497-1.242-32.982,0.041-48.997,3.69
			C486.956,384.851,490.966,407.44,488.287,423.602L488.287,423.602z"/>
		<path fill="#8E8E8E" d="M379.353,358.526c-3.805-7.349-7.319-14.839-10.542-22.344c-19.271,4.536-39.188,5.92-59.119,3.936
			c0.32,16.312,4.176,32.775,12.158,48.194c9.102,17.569,22.344,31.58,37.896,41.619c9.686-16.284,21.845-30.799,35.958-43.213
			C389.905,377.762,384.392,368.256,379.353,358.526L379.353,358.526z"/>
		<path fill="#8E8E8E" d="M350.891,251.756c-23.027,18.393-37.271,44.982-40.585,73.272c17.783,1.858,35.562,0.767,52.812-3.042
			C353.113,295.153,347.953,269.539,350.891,251.756L350.891,251.756z"/>
	</g>
	<g>
		<path fill="#8E8E8E" d="M1541.636,805.342c-3.194-2.045-4.125-6.311-2.08-9.496c2.052-3.199,6.304-4.128,9.5-2.081l77.49,49.695
			l64.035-66.149c2.639-2.725,6.979-2.798,9.707-0.151c2.738,2.634,2.807,6.992,0.156,9.719l-67.938,70.191
			c-1.135,1.182-2.604,1.862-4.145,2.047c-1.531,0.176-3.119-0.155-4.492-1.037L1541.636,805.342L1541.636,805.342z
			 M1533.751,759.369c-15.051,1.751-25.881,15.428-24.133,30.496l11.912,102.434c1.752,15.064,15.43,25.891,30.481,24.141
			l163.818-19.045c15.055-1.75,25.887-15.424,24.139-30.494l-11.916-102.433c-1.75-15.07-15.43-25.893-30.483-24.144
			L1533.751,759.369L1533.751,759.369z"/>
		<path fill="#FFB442" d="M1823.384,1179.377c-3.364-12.102-15.901-19.173-28.004-15.803c-32.229,8.984-46.508,3.691-54.444-1.072
			c-30.541-18.332-45.885-86.229-66.729-180.373c4.21-2.85,7.964-6.445,11.174-10.767c9.791-13.188,25.525-69.038,27.092-75.898
			c0.927-4.041,0.509-10.015-3.438-14.645c-0.867-1.016-1.863-1.915-2.976-2.671c-8.151-5.568-16.389,0.75-21.309,4.523
			c-1.004,0.764-20.926,20.082-22.127,20.873c-53.871,4.852-96.516,11.314-96.553,11.256c0,0,5.508,13.702,8.047,18.73
			c5.299,10.492,9.33,18.027,16.725,26.703c1.72,2.016,3.556,4.02,5.619,6.129c9.426,9.653,20.649,16.671,32.195,20.429
			c0.146,0.661,0.296,1.335,0.441,1.993c12.12,54.758,21.692,98.01,33.774,132.599c12.724,36.432,27.306,59.944,46.527,74.604
			c2.625,1.996,5.323,3.826,8.129,5.514c23.723,14.232,53.184,16.159,90.053,5.883
			C1819.679,1204.014,1826.759,1191.472,1823.384,1179.377z"/>
	</g>
	<g>
		<g>
			<path fill="#8E8E8E" d="M390.418,854.617c-8.75,1.825-17.601,0.535-27.061-3.946c-13.171-6.203-25.322-15.774-38.222-30.118
				c-23.223-25.837-40.518-55.987-51.399-89.619c-8.744-26.972-12.63-51.989-11.876-76.477c0.283-10.818,1.482-25.056,8.363-38.854
				c4.465-8.938,11.271-15.237,20.228-18.73c4.515-1.771,9.088-3.724,13.516-5.616c3.099-1.322,6.304-2.692,9.521-4.013
				c1.838-0.768,3.746-1.356,5.621-1.75c12.439-2.594,23.505,3.427,28.857,15.705c1.786,4.116,3.528,8.284,5.211,12.318
				c0.904,2.161,1.805,4.323,2.718,6.479c1.368,3.287,2.72,6.494,4.077,9.712c1.191,2.827,2.386,5.65,3.578,8.505
				c6.251,14.979,0.662,28.751-14.228,35.089l-3.291,1.409c-5.544,2.359-11.242,4.797-16.959,7.128
				c0.373,7.463,1.887,15.312,4.688,24.438c6.256,20.364,14.333,37.275,24.695,51.701c1.257,1.724,2.826,3.483,4.486,5.352
				c0.474,0.534,0.96,1.078,1.439,1.629c6.474-2.799,12.985-5.512,19.316-8.146l1.087-0.454c1.889-0.793,3.817-1.396,5.723-1.792
				c12.455-2.599,23.493,3.462,28.799,15.817c5.372,12.646,10.608,24.982,15.728,37.205c6.103,14.595,0.367,28.618-14.283,34.895
				c-2.477,1.058-4.969,2.066-7.376,3.042c-4.708,1.9-9.14,3.699-13.401,5.777C396.853,852.832,393.644,853.947,390.418,854.617z"/>
		</g>
		<path fill="#FFB442" d="M348.521,755.355c-3.371-6.54-11.048-9.147-16.53-10.536c-4.113-1.037-8.417-1.247-12.576-1.444
			c-2.964-0.143-7.796-0.373-9.446-1.15c-0.017-0.764,0.16-1.557,0.506-2.448c1.825-4.694,7.425-10.105,10.43-13.017l0.748-0.719
			c2.527-2.464,7.104-7.442,9.308-13.096c2.458-6.318,1.403-12.386-2.896-16.651c-7.556-7.52-20.4-1.919-25.883,0.471
			c-6.24,2.726-14.581,7.926-19.565,11.03l-0.7,0.438c-2.622,1.635-5.122,3.304-7.452,4.865c-1.827,1.224-3.999,2.674-5.918,3.85
			c0.765-10.872,0.002-27.119-13.678-30.034c-10.033-2.133-17.716,6.274-21.403,10.317l-0.747,0.812
			c-5.1,5.455-8.413,10.054-11.638,14.669c-6.726,9.641-11.451,16.76-15.584,27.386c-0.962,2.471-1.859,5.032-2.741,7.851
			c-4.865,15.53-5.098,31.537-0.989,45.238c-65.96,65.615-114.069,112.293-148.869,111.286c-9.257-0.273-24.144-3.519-46.439-28.465
			c-8.37-9.362-22.743-10.166-32.111-1.798c-9.364,8.366-10.168,22.743-1.799,32.109c25.508,28.541,51.356,42.804,79.024,43.612
			c3.261,0.094,6.527,0.012,9.812-0.263c24.097-1.976,49.064-13.905,79.433-37.725c26.796-21.02,55.822-49.512,91.7-85.2
			c2.553,0.834,5.211,1.467,7.977,1.87c16.255,2.377,72.893-10.24,79.671-12.117c3.996-1.095,9.059-4.294,11.27-9.964
			c0.482-1.244,0.804-2.554,0.942-3.886c1.04-9.822-8.426-14.075-14.083-16.617c-1.146-0.521-2.763-1.242-4.028-1.924
			c3.143-1.515,9.131-3.049,12.7-3.968c9.8-2.517,18.265-4.682,21.347-11.239c0.209-0.443,0.398-0.885,0.563-1.309
			C350.988,762.156,349.851,757.938,348.521,755.355z"/>
	</g>
	<path fill="#8E8E8E" d="M1513.132,402.154c-13.979-6.024-30.255,0.454-36.283,14.446c-6.019,13.969,0.451,30.246,14.433,36.27
		c13.985,6.026,30.266-0.449,36.285-14.417C1533.594,424.46,1527.118,408.181,1513.132,402.154L1513.132,402.154z"/>
	<path fill="#8E8E8E" d="M1484.076,469.59c-23.191-9.993-33.938-37-23.945-60.191c9.996-23.206,37.006-33.942,60.199-23.949
		c23.203,9.998,33.946,37,23.947,60.206C1534.285,468.846,1507.281,479.587,1484.076,469.59L1484.076,469.59z M1537.114,346.51
		c-47.001-20.251-101.515,1.428-121.761,48.421c-17.268,40.074,13.366,139.236,22.769,167.58c1.378,4.136,6.039,6.146,9.996,4.31
		c27.061-12.636,120.164-58.484,137.431-98.558C1605.796,421.269,1584.107,366.758,1537.114,346.51L1537.114,346.51z"/>
</g>
</svg>
