<?xml version="1.0" encoding="utf-8"?>
<!-- Generator: Adobe Illustrator 15.0.0, SVG Export Plug-In . SVG Version: 6.00 Build 0)  -->
<!DOCTYPE svg PUBLIC "-//W3C//DTD SVG 1.1//EN" "http://www.w3.org/Graphics/SVG/1.1/DTD/svg11.dtd">
<svg version="1.1" id="Calque_1" xmlns="http://www.w3.org/2000/svg" xmlns:xlink="http://www.w3.org/1999/xlink" x="0px" y="0px"
	 width="1920px" height="1080px" viewBox="0 0 1920 1080" enable-background="new 0 0 1920 1080" xml:space="preserve">
<g>
	<path fill="#FFB442" d="M1204.864,915.148c-1.275-3.146-4.865-4.662-8.005-3.384c-5.157,2.094-9.312,3.729-12.416,4.906
		c-1.827-19.284-8.084-31.671-18.289-36.022c-1.168-0.498-2.479-0.92-3.922-1.206c0.017-2.493-0.126-4.986-0.369-7.457
		c-0.332-3.371-1.418-7.419-3.146-11.854c6.005,1.236,11.039,1.692,15.148,1.332c5.144-0.448,8.871-2.15,11.351-5.119
		c7.15-8.552,0.056-23.366-5.646-35.271c-0.104-0.214-0.202-0.423-0.305-0.636c1.186-1.197,2.048-2.69,2.476-4.433
		c0.849-3.442-0.721-15.436-0.879-16.337c-0.222-1.279-1.2-2.726-2.883-3.067c-0.049-0.013-0.097-0.021-0.144-0.027
		c-2.079-0.322-3.176,1.427-3.841,2.586c-0.105-0.524-0.197-1.106-0.266-1.542c-0.33-2.119-0.616-3.949-2.047-4.8
		c-0.46-0.272-0.932-0.448-1.401-0.521c-1.34-0.207-3.187,0.24-4.373,3.553c-0.304,0.846-0.438,1.764-0.554,2.57
		c-0.062,0.428-0.146,1.012-0.247,1.394c-0.782-0.377-1.866-1.739-2.252-2.225l-0.13-0.164c-0.854-1.063-2.213-2.393-3.825-2.644
		c-0.954-0.147-1.888,0.108-2.63,0.723c-1.879,1.562-0.942,4.438-0.544,5.663l0.011,0.032c0.424,1.3,1.311,3.083,1.84,4.149
		l0.074,0.149c0.281,0.569,0.576,1.114,0.834,1.597c0.082,0.153,0.172,0.319,0.262,0.486c-4.039-0.455-5.443,1.127-5.903,2.579
		c-0.694,2.206,0.952,4.034,1.747,4.91c0.051,0.059,0.099,0.111,0.143,0.159c1.006,1.143,1.876,1.905,2.751,2.652
		c2.229,1.899,3.798,3.146,6.805,4.414c1.328,0.562,2.707,0.955,4.097,1.173c0,0,0,0.002,0.001,0c0.83,0.13,1.644,0.19,2.433,0.191
		c0.207,0.431,0.413,0.861,0.625,1.306c2.479,5.176,5.288,11.039,6.771,16.159c1.341,4.642,1.373,7.903,0.093,9.437
		c-0.93,1.109-5.438,4.305-24.476-0.868c-13.589-25.085-42.358-55.017-72.255-51.146c-39.479,5.11-49.345,48.725-43.771,83.701
		c-7.869-0.938-13.596,0.595-17.305,4.622c-8.559,9.293-1.942,27.812,4.686,42.127c-0.639,0.591-1.211,1.271-1.688,2.053
		c-1.848,3.029-3.962,14.938-4.081,15.844c-0.174,1.287,0.322,2.96,1.823,3.795c0.043,0.023,0.087,0.047,0.13,0.068
		c1.885,0.936,3.457-0.403,4.438-1.31c-0.058,0.531-0.146,1.113-0.212,1.551c-0.322,2.119-0.601,3.95,0.508,5.192
		c0.354,0.396,0.753,0.707,1.18,0.92c1.216,0.601,3.109,0.729,5.239-2.069c0.543-0.714,0.945-1.55,1.302-2.286
		c0.188-0.389,0.444-0.919,0.654-1.252c0.635,0.596,1.257,2.223,1.479,2.798l0.071,0.194c0.495,1.273,1.392,2.947,2.854,3.673
		c0.867,0.429,1.834,0.466,2.724,0.104c2.267-0.922,2.237-3.943,2.228-5.233v-0.035c-0.012-1.366-0.319-3.334-0.505-4.511
		l-0.025-0.166c-0.099-0.628-0.215-1.235-0.314-1.772c-0.033-0.172-0.067-0.355-0.104-0.544c3.716,1.65,5.53,0.564,6.405-0.682
		c1.328-1.895,0.308-4.133-0.187-5.207c-0.03-0.071-0.062-0.138-0.089-0.195c-0.614-1.392-1.216-2.383-1.823-3.357
		c-1.555-2.481-2.677-4.143-5.158-6.257c-1.1-0.938-2.297-1.729-3.554-2.354c0,0,0-0.002-0.002,0
		c-1.503-0.745-3.021-1.217-4.497-1.432c-11.067-23.555-9.077-31.131-6.853-33.55c1.055-1.145,4.139-2.987,12.599-1.316
		c3.405,13.538,9.188,24.895,16.381,30.797c9.834,8.069,20.647,11.104,31.701,11.128l0.762,29.074
		c0.085,3.256,2.693,5.881,5.951,5.979l17.591,0.547c0.048,0.002,0.095,0.003,0.142,0.004c3.329,0.027,6.088-2.608,6.192-5.954
		c0.104-3.394-2.562-6.229-5.952-6.334l-11.789-0.365l-0.63-24.055c10.371-1.909,18.753-6.358,25.095-12.379
		c0.064-0.021,0.131-0.04,0.195-0.061c22.24-6.998,31.652-17.254,35.119-28.387c0.291,0.084,0.574,0.178,0.851,0.295
		c6.55,2.795,10.781,15.2,11.319,33.188c0.06,2.013,1.12,3.899,2.807,4.998c2.339,1.525,4.628,1.045,6.562,0.445
		c0.255-0.079,0.507-0.161,0.749-0.24c1.213-0.396,2.89-0.994,4.979-1.78c3.552-1.335,8.429-3.255,13.732-5.407
		C1204.626,921.877,1206.142,918.293,1204.864,915.148z"/>
	<g>
		<g>
			
				<ellipse transform="matrix(-0.8855 0.4647 -0.4647 -0.8855 2493.5994 1054.3857)" fill="#FFFFFF" cx="1116.875" cy="834.462" rx="13.806" ry="13.398"/>
		</g>
	</g>
	<g>
		<g>
			<circle cx="1120.817" cy="833.791" r="7.308"/>
		</g>
	</g>
	<g>
		<g>
			
				<ellipse transform="matrix(-0.8855 0.4647 -0.4647 -0.8855 2434.1545 1094.6572)" fill="#FFFFFF" cx="1082.181" cy="847.294" rx="13.805" ry="13.398"/>
		</g>
	</g>
	<g>
		<g>
			<circle cx="1086.121" cy="846.594" r="7.308"/>
		</g>
	</g>
	<g>
		<g>
			<path fill="#F1608C" d="M1107.683,878.482c-3.053,0.267-5.895-1.783-6.541-4.856c-0.697-3.316,1.42-6.572,4.732-7.276
				c0.159-0.034,10.005-2.228,17.56-8.44c2.622-2.155,6.493-1.778,8.649,0.843c2.155,2.62,1.778,6.493-0.843,8.649
				c-9.963,8.193-22.299,10.861-22.819,10.972C1108.175,878.425,1107.928,878.461,1107.683,878.482z"/>
		</g>
		<g>
			<path d="M1107.591,874.188c-1.015,0.132-1.975-0.4-2.213-1.266c-0.258-0.934,0.423-1.898,1.522-2.159
				c0.184-0.045,10.853-2.646,19.041-8.982c0.854-0.662,2.146-0.625,2.882,0.082c0.736,0.709,0.641,1.816-0.214,2.479
				c-8.998,6.965-20.298,9.688-20.774,9.802C1107.753,874.162,1107.671,874.177,1107.591,874.188z"/>
		</g>
	</g>
</g>
<polygon fill="#E0E0FF" points="1921,1132.021 1921,704.947 1827.583,704.947 1827.583,733.217 1752.604,733.217 1752.604,761.488 
	1677.625,761.488 1677.625,789.759 1602.646,789.759 1602.646,818.029 1527.666,818.029 1527.666,846.301 1452.688,846.301 
	1452.688,874.571 1377.707,874.571 1377.707,902.843 1302.729,902.843 1302.729,931.113 1227.748,931.113 1227.748,959.385 
	1152.77,959.385 1152.77,987.655 1077.789,987.655 1077.789,1015.926 1002.81,1015.926 1002.81,1044.196 927.83,1044.196 
	927.83,1072.468 852.851,1072.468 852.851,1132.689 "/>
</svg>
