<?xml version="1.0" encoding="utf-8"?>
<!-- Generator: Adobe Illustrator 15.0.0, SVG Export Plug-In . SVG Version: 6.00 Build 0)  -->
<!DOCTYPE svg PUBLIC "-//W3C//DTD SVG 1.1//EN" "http://www.w3.org/Graphics/SVG/1.1/DTD/svg11.dtd">
<svg version="1.1" id="Calque_1" xmlns="http://www.w3.org/2000/svg" xmlns:xlink="http://www.w3.org/1999/xlink" x="0px" y="0px"
	 width="60px" height="60px" viewBox="0 0 60 60" enable-background="new 0 0 60 60" xml:space="preserve">
<g>
	<g>
		<g>
			<path fill="#FFFFFF" d="M29.999,59.684c16.396,0,29.685-13.291,29.685-29.684c0-16.395-13.289-29.684-29.685-29.684
				C13.604,0.316,0.315,13.605,0.315,30C0.316,46.393,13.605,59.684,29.999,59.684"/>
		</g>
	</g>
</g>
<g>
	<path fill="#63BEE6" d="M17.762,38.961V20.704h6.272c1.008,0,1.95,0.098,2.828,0.294c0.877,0.196,1.643,0.523,2.296,0.98
		c0.653,0.458,1.17,1.064,1.553,1.82c0.382,0.756,0.574,1.685,0.574,2.786c0,1.064-0.191,1.988-0.574,2.772
		c-0.383,0.784-0.9,1.429-1.553,1.933c-0.653,0.504-1.409,0.877-2.268,1.119s-1.774,0.363-2.744,0.363h-2.268v6.189H17.762z
		 M21.878,29.496h2.016c2.24,0,3.36-0.971,3.36-2.912c0-0.952-0.299-1.624-0.896-2.016c-0.598-0.392-1.456-0.588-2.576-0.588h-1.904
		V29.496z"/>
	<path fill="#63BEE6" d="M36.521,39.297c-0.914,0-1.854-0.178-2.814-0.533c-0.959-0.354-1.797-0.82-2.506-1.398l1.848-2.576
		c0.635,0.484,1.242,0.85,1.82,1.092s1.166,0.363,1.764,0.363c0.617,0,1.064-0.102,1.344-0.309c0.281-0.205,0.422-0.494,0.422-0.867
		c0-0.225-0.078-0.424-0.238-0.602c-0.158-0.178-0.373-0.342-0.645-0.49c-0.27-0.148-0.572-0.285-0.908-0.406
		c-0.338-0.121-0.684-0.256-1.037-0.406c-0.43-0.168-0.857-0.363-1.287-0.588c-0.432-0.225-0.822-0.498-1.176-0.826
		c-0.355-0.326-0.646-0.709-0.869-1.147c-0.223-0.438-0.336-0.947-0.336-1.526c0-0.635,0.127-1.223,0.379-1.764
		s0.609-0.999,1.078-1.372c0.467-0.373,1.025-0.667,1.68-0.882c0.652-0.214,1.381-0.322,2.184-0.322
		c1.064,0,1.998,0.182,2.801,0.546c0.803,0.364,1.502,0.77,2.1,1.217l-1.848,2.464c-0.504-0.372-0.998-0.661-1.484-0.867
		c-0.484-0.206-0.971-0.309-1.455-0.309c-1.047,0-1.568,0.364-1.568,1.092c0,0.225,0.074,0.416,0.225,0.574s0.352,0.305,0.604,0.435
		s0.541,0.256,0.867,0.378s0.668,0.247,1.021,0.378c0.447,0.168,0.893,0.359,1.33,0.574s0.84,0.48,1.203,0.799
		c0.363,0.316,0.658,0.703,0.883,1.16c0.225,0.459,0.336,1.004,0.336,1.639c0,0.637-0.121,1.225-0.363,1.766
		s-0.607,1.014-1.092,1.414c-0.486,0.4-1.084,0.719-1.793,0.951C38.275,39.18,37.455,39.297,36.521,39.297z"/>
</g>
<g>
	<path fill="#63BEE6" d="M30,56.309C15.493,56.309,3.69,44.506,3.69,30C3.69,15.493,15.493,3.691,30,3.691
		c14.508,0,26.309,11.802,26.309,26.309C56.309,44.506,44.508,56.309,30,56.309z M30,7.75C17.73,7.75,7.75,17.731,7.75,30
		c0,12.267,9.981,22.25,22.25,22.25c12.27,0,22.25-9.98,22.25-22.25S42.27,7.75,30,7.75z"/>
</g>
</svg>
