<?xml version="1.0" encoding="utf-8"?>
<!-- Generator: Adobe Illustrator 15.0.0, SVG Export Plug-In . SVG Version: 6.00 Build 0)  -->
<!DOCTYPE svg PUBLIC "-//W3C//DTD SVG 1.1//EN" "http://www.w3.org/Graphics/SVG/1.1/DTD/svg11.dtd">
<svg version="1.1" id="Calque_1" xmlns="http://www.w3.org/2000/svg" xmlns:xlink="http://www.w3.org/1999/xlink" x="0px" y="0px"
	 width="60px" height="60px" viewBox="9.5 10.5 60 60" enable-background="new 9.5 10.5 60 60" xml:space="preserve">
<g>
	<g>
		<g>
			<g>
				<path fill="#FFFFFF" d="M39.5,70.184c16.396,0,29.685-13.289,29.685-29.683c0-16.396-13.289-29.685-29.685-29.685
					c-16.395,0-29.684,13.289-29.684,29.684C9.816,56.895,23.105,70.184,39.5,70.184"/>
			</g>
		</g>
	</g>
	<g>
		<path fill="#E6D837" d="M22.574,47.85V34.158h4.703c0.757,0,1.463,0.073,2.121,0.22c0.658,0.147,1.232,0.392,1.723,0.735
			c0.491,0.343,0.879,0.798,1.166,1.365c0.286,0.567,0.43,1.264,0.43,2.089c0,0.798-0.144,1.491-0.43,2.08
			c-0.287,0.588-0.676,1.07-1.166,1.449c-0.49,0.377-1.057,0.657-1.701,0.84c-0.644,0.182-1.33,0.272-2.059,0.272h-1.7v4.642H22.574
			L22.574,47.85z M25.661,40.751h1.512c1.681,0,2.521-0.728,2.521-2.184c0-0.714-0.225-1.218-0.672-1.512
			c-0.449-0.294-1.092-0.441-1.933-0.441h-1.428V40.751z"/>
		<path fill="#E6D837" d="M34.04,47.85V34.158h3.087v5.271h4.726v-5.271h3.107V47.85h-3.107v-5.711h-4.726v5.711H34.04z"/>
		<path fill="#E6D837" d="M47.144,47.85V34.158h4.703c0.756,0,1.463,0.073,2.121,0.22s1.231,0.392,1.723,0.735
			c0.488,0.343,0.878,0.798,1.164,1.365c0.287,0.567,0.432,1.264,0.432,2.089c0,0.798-0.145,1.491-0.432,2.08
			c-0.286,0.588-0.676,1.07-1.164,1.449c-0.49,0.377-1.059,0.657-1.701,0.84c-0.643,0.182-1.33,0.272-2.059,0.272h-1.701v4.642
			H47.144L47.144,47.85z M50.229,40.751h1.513c1.68,0,2.521-0.728,2.521-2.184c0-0.714-0.225-1.218-0.672-1.512
			c-0.447-0.294-1.093-0.441-1.933-0.441h-1.429V40.751z"/>
	</g>
	<g>
		<path fill="#E6D837" d="M39.5,66.809c-14.507,0-26.309-11.802-26.309-26.309S24.993,14.191,39.5,14.191
			c1.121,0,2.029,0.909,2.029,2.03c0,1.121-0.908,2.03-2.029,2.03c-12.269,0-22.25,9.981-22.25,22.25
			c0,12.269,9.981,22.25,22.25,22.25c1.121,0,2.029,0.908,2.029,2.028C41.529,65.9,40.621,66.809,39.5,66.809z"/>
	</g>
</g>
</svg>
