<?xml version="1.0" encoding="utf-8"?>
<!-- Generator: Adobe Illustrator 15.0.0, SVG Export Plug-In . SVG Version: 6.00 Build 0)  -->
<!DOCTYPE svg PUBLIC "-//W3C//DTD SVG 1.1//EN" "http://www.w3.org/Graphics/SVG/1.1/DTD/svg11.dtd">
<svg version="1.1" id="Calque_1" xmlns="http://www.w3.org/2000/svg" xmlns:xlink="http://www.w3.org/1999/xlink" x="0px" y="0px"
	 width="60px" height="60px" viewBox="0 20 60 60" enable-background="new 0 20 60 60" xml:space="preserve">
<g>
	<g>
		<g>
			<path fill="#FFFFFF" d="M30,79.684c16.396,0,29.685-13.29,29.685-29.684c0-16.396-13.288-29.684-29.685-29.684
				C13.605,20.316,0.316,33.604,0.316,50C0.316,66.394,13.605,79.684,30,79.684"/>
		</g>
	</g>
</g>
<g>
	<path fill="#E62F37" d="M30.001,76.31c-14.508,0-26.31-11.803-26.31-26.31c0-14.507,11.802-26.31,26.31-26.31
		c1.121,0,2.029,0.909,2.029,2.03s-0.908,2.03-2.029,2.03c-12.27,0-22.25,9.98-22.25,22.249c0,12.27,9.98,22.25,22.25,22.25
		c12.268,0,22.25-9.98,22.25-22.25c0-1.12,0.908-2.029,2.029-2.029s2.029,0.909,2.029,2.029C56.31,64.507,44.507,76.31,30.001,76.31
		z"/>
</g>
<g>
	<polygon fill="#E62F37" points="34.227,35.801 16.912,38.065 19.284,52.964 22.927,64.199 41.191,59.002 43.088,42.787 	"/>
	<polygon fill="#FFFFFF" points="27.361,52.979 22.171,54.102 23.161,57.035 28.835,55.662 	"/>
	<polygon fill="#FFFFFF" points="30.792,44.49 20.323,46.316 21.291,49.064 27.008,47.896 27.005,47.898 28.549,50.473 
		34.619,49.154 	"/>
	<polygon fill="#FFFFFF" points="41.26,43.006 33.805,37.188 18.497,39.168 19.356,41.627 30.685,40.036 34.729,44.16 	"/>
</g>
</svg>
