<?xml version="1.0" encoding="utf-8"?>
<!-- Generator: Adobe Illustrator 15.0.0, SVG Export Plug-In . SVG Version: 6.00 Build 0)  -->
<!DOCTYPE svg PUBLIC "-//W3C//DTD SVG 1.1//EN" "http://www.w3.org/Graphics/SVG/1.1/DTD/svg11.dtd">
<svg version="1.1" id="Calque_1" xmlns="http://www.w3.org/2000/svg" xmlns:xlink="http://www.w3.org/1999/xlink" x="0px" y="0px"
	 width="60px" height="60px" viewBox="4.5 15.5 60 60" enable-background="new 4.5 15.5 60 60" xml:space="preserve">
<g>
	<g>
		<g>
			<path fill="#FFFFFF" d="M34.5,75.184c16.396,0,29.684-13.289,29.684-29.684c0-16.395-13.287-29.684-29.684-29.684
				c-16.395,0-29.684,13.289-29.684,29.684C4.816,61.895,18.106,75.184,34.5,75.184"/>
		</g>
	</g>
</g>
<g>
	<path fill="#05759B" d="M34.5,71.811c-14.507,0-26.309-11.805-26.309-26.311c0-14.507,11.802-26.311,26.309-26.311
		c1.121,0,2.029,0.909,2.029,2.03c0,1.121-0.908,2.03-2.029,2.03c-12.269,0-22.25,9.98-22.25,22.249
		c0,12.27,9.981,22.25,22.25,22.25s22.25-9.98,22.25-22.25c0-1.121,0.908-2.029,2.029-2.029s2.029,0.908,2.029,2.029
		C60.809,60.006,49.008,71.811,34.5,71.811z"/>
</g>
<g>
	<path fill="#05759B" d="M20.026,45.498c0,5.729,3.33,10.682,8.158,13.025l-6.905-18.917C20.476,41.408,20.026,43.398,20.026,45.498
		z"/>
	<path fill="#05759B" d="M44.273,44.768c0-1.788-0.643-3.027-1.194-3.992c-0.732-1.191-1.422-2.201-1.422-3.395
		c0-1.33,1.01-2.569,2.433-2.569c0.064,0,0.125,0.009,0.188,0.012c-2.577-2.358-6.007-3.799-9.775-3.799
		c-5.057,0-9.506,2.594-12.094,6.524c0.34,0.01,0.66,0.017,0.932,0.017c1.514,0,3.857-0.185,3.857-0.185
		c0.781-0.046,0.872,1.101,0.094,1.193c0,0-0.785,0.092-1.658,0.138l5.272,15.679l3.168-9.501l-2.257-6.178
		c-0.779-0.046-1.518-0.139-1.518-0.139c-0.779-0.046-0.688-1.238,0.092-1.192c0,0,2.391,0.185,3.812,0.185
		c1.514,0,3.857-0.185,3.857-0.185c0.781-0.046,0.873,1.101,0.095,1.192c0,0-0.787,0.093-1.657,0.139l5.23,15.56l1.442-4.824
		C43.797,47.445,44.273,46.006,44.273,44.768z"/>
	<path fill="#05759B" d="M34.754,46.764L30.41,59.383c1.297,0.383,2.669,0.592,4.09,0.592c1.686,0,3.303-0.293,4.807-0.82
		c-0.039-0.062-0.073-0.129-0.103-0.199L34.754,46.764z"/>
	<path fill="#05759B" d="M47.201,38.554c0.062,0.461,0.098,0.956,0.098,1.488c0,1.469-0.271,3.12-1.102,5.186L41.776,58.01
		c4.304-2.51,7.198-7.172,7.198-12.512C48.975,42.981,48.332,40.615,47.201,38.554z"/>
</g>
</svg>
